<svg xmlns="http://www.w3.org/2000/svg" xml:space="preserve" id="flowchart" x="0" y="0" enable-background="new 0 0 64 64" version="1.1" viewBox="0 0 64 64">
  <path d="M59.15,4.1H4.85C2.18,4.1,0,6.28,0,8.96v46.08c0,2.68,2.18,4.86,4.85,4.86h54.3c2.67,0,4.85-2.18,4.85-4.86V8.96
		C64,6.28,61.82,4.1,59.15,4.1z M62.53,55.04c0,1.87-1.52,3.39-3.38,3.39H4.85c-1.86,0-3.38-1.52-3.38-3.39V19.29h61.06V55.04z
		 M62.53,17.83H1.47V8.96c0-1.87,1.52-3.39,3.38-3.39h54.3c1.86,0,3.38,1.52,3.38,3.39V17.83z"></path>
  <path fill="#ea526c" d="M59.15,5.57H4.85c-1.86,0-3.38,1.52-3.38,3.39v8.87h61.06V8.96C62.53,7.09,61.01,5.57,59.15,5.57z M30.5,14.74
		H8.6c-1.68,0-3.04-1.36-3.04-3.04S6.92,8.66,8.6,8.66h21.9c1.68,0,3.05,1.36,3.05,3.04S32.18,14.74,30.5,14.74z M46.37,15.1
		c-1.87,0-3.4-1.53-3.4-3.4c0-1.88,1.53-3.4,3.4-3.4c1.88,0,3.4,1.52,3.4,3.4C49.77,13.57,48.25,15.1,46.37,15.1z M53.93,15.1
		c-1.87,0-3.4-1.53-3.4-3.4c0-1.88,1.53-3.4,3.4-3.4c1.88,0,3.4,1.52,3.4,3.4C57.33,13.57,55.81,15.1,53.93,15.1z"></path>
  <path fill="#e1e9ff" d="M1.47,19.29v35.75c0,1.87,1.52,3.39,3.38,3.39h54.3c1.86,0,3.38-1.52,3.38-3.39V19.29H1.47z M3.58,23.39
		c0-0.9,0.73-1.63,1.63-1.63h10.81c0.9,0,1.64,0.73,1.64,1.63v2.49h3.3l-0.95-1.01c-0.28-0.29-0.27-0.76,0.03-1.04
		c0.29-0.28,0.76-0.26,1.03,0.03l2.13,2.25c0.05,0.06,0.09,0.13,0.13,0.2c0.01,0.02,0.01,0.04,0.02,0.05
		c0.02,0.07,0.03,0.13,0.04,0.19v0.08c0,0.07-0.01,0.13-0.03,0.19c-0.01,0.02-0.01,0.04-0.02,0.06c0,0.01,0,0.02,0,0.02
		c-0.04,0.08-0.08,0.15-0.14,0.2c0,0.01,0,0.01,0,0.02l-2.13,2.25c-0.14,0.15-0.33,0.23-0.53,0.23c-0.18,0-0.36-0.07-0.5-0.2
		c-0.3-0.28-0.31-0.75-0.03-1.04l0.96-1.01h-3.31v2.49c0,0.9-0.74,1.63-1.64,1.63H5.21c-0.9,0-1.63-0.73-1.63-1.63V23.39z
		 M21.69,51.37c-0.01,0.04-0.04,0.07-0.07,0.1c-0.02,0.05-0.04,0.09-0.07,0.13l-2.4,2.55c-0.15,0.15-0.34,0.23-0.54,0.23
		c-0.18,0-0.36-0.07-0.5-0.2c-0.3-0.28-0.31-0.74-0.03-1.04l1.24-1.31H10.9c-3.78,0-6.85-3.08-6.85-6.85c0-3.78,3.07-6.85,6.85-6.85
		h13.9v-2.49c0-0.9,0.73-1.63,1.64-1.63h10.8c0.91,0,1.64,0.73,1.64,1.63v6.45c0,0.9-0.73,1.63-1.64,1.63h-10.8
		c-0.91,0-1.64-0.73-1.64-1.63V39.6H10.9c-2.97,0-5.38,2.41-5.38,5.38s2.41,5.38,5.38,5.38h8.42l-1.24-1.31
		c-0.28-0.3-0.27-0.76,0.03-1.04c0.29-0.28,0.76-0.26,1.04,0.03l2.4,2.55c0.03,0.04,0.05,0.08,0.07,0.12
		c0.03,0.04,0.06,0.07,0.07,0.11C21.76,50.99,21.76,51.19,21.69,51.37z M44.61,51.13c0,0.06-0.01,0.13-0.03,0.19
		c0,0.02-0.01,0.04-0.02,0.06c0,0.01,0,0.02,0,0.02c-0.03,0.08-0.08,0.14-0.13,0.2c-0.01,0.01-0.01,0.01-0.01,0.02l-2.12,2.24
		c-0.15,0.16-0.34,0.23-0.54,0.23c-0.18,0-0.36-0.06-0.5-0.2c-0.29-0.27-0.31-0.74-0.03-1.03l0.96-1.01h-3.31v2.48
		c0,0.91-0.73,1.64-1.64,1.64h-10.8c-0.91,0-1.64-0.73-1.64-1.64v-6.44c0-0.9,0.73-1.63,1.64-1.63h10.8c0.91,0,1.64,0.73,1.64,1.63
		v2.49h3.31l-0.96-1.01c-0.28-0.3-0.26-0.76,0.03-1.04c0.3-0.28,0.76-0.26,1.04,0.03l2.12,2.25c0.05,0.06,0.1,0.12,0.13,0.2
		c0.01,0.01,0.01,0.03,0.02,0.05c0.02,0.06,0.03,0.13,0.04,0.19V51.13z M45.57,41.93c-0.14,0.13-0.32,0.2-0.5,0.2
		c-0.2,0-0.39-0.08-0.54-0.23l-2.4-2.55c-0.03-0.04-0.05-0.08-0.07-0.12c-0.03-0.04-0.06-0.07-0.07-0.11
		c-0.07-0.18-0.07-0.37,0-0.55c0.01-0.04,0.04-0.07,0.07-0.11c0.02-0.04,0.04-0.08,0.07-0.12l2.4-2.55
		c0.28-0.29,0.75-0.31,1.04-0.03c0.29,0.28,0.31,0.74,0.03,1.04l-1.24,1.31h8.42c2.97,0,5.38-2.41,5.38-5.38s-2.41-5.38-5.38-5.38
		h-13.9v2.49c0,0.9-0.73,1.63-1.64,1.63h-10.8c-0.91,0-1.64-0.73-1.64-1.63v-6.45c0-0.9,0.73-1.63,1.64-1.63h10.8
		c0.91,0,1.64,0.73,1.64,1.63v2.49h13.9c3.78,0,6.85,3.07,6.85,6.85s-3.07,6.85-6.85,6.85h-8.42l1.24,1.31
		C45.88,41.19,45.86,41.65,45.57,41.93z M60.42,54.33c0,0.91-0.73,1.64-1.63,1.64H47.98c-0.9,0-1.64-0.73-1.64-1.64v-6.44
		c0-0.9,0.74-1.63,1.64-1.63h10.81c0.9,0,1.63,0.73,1.63,1.63V54.33z"></path>
  <path fill="#d3dcfb" d="M59.91,19.29c-2.44,2.23-4.88,4.43-7.35,6.59h0.22c3.78,0,6.85,3.07,6.85,6.85c0,3.78-3.07,6.85-6.85,6.85
		h-8.42l1.24,1.31c0.28,0.3,0.26,0.76-0.03,1.04c-0.14,0.13-0.32,0.2-0.5,0.2c-0.2,0-0.39-0.08-0.54-0.23l-2.4-2.55
		c-0.03-0.04-0.05-0.08-0.07-0.12c-0.03-0.04-0.06-0.07-0.07-0.11c-0.07-0.18-0.07-0.37,0-0.55c0.01-0.04,0.04-0.07,0.07-0.11
		c0.02-0.04,0.04-0.08,0.07-0.12l2.4-2.55c0.28-0.29,0.75-0.31,1.04-0.03c0.29,0.28,0.31,0.74,0.03,1.04l-1.24,1.31h8.42
		c2.97,0,5.38-2.41,5.38-5.38c0-2.97-2.41-5.38-5.38-5.38h-1.92c-3.93,3.38-7.9,6.61-11.98,9.56v5.18c0,0.9-0.73,1.63-1.64,1.63
		h-8.98c-2.97,1.65-5.99,3.1-9.11,4.32l2.4,2.55c0.03,0.04,0.05,0.08,0.07,0.12c0.03,0.04,0.06,0.07,0.07,0.11
		c0.07,0.17,0.07,0.37,0,0.55c-0.01,0.04-0.04,0.07-0.07,0.1c-0.02,0.05-0.04,0.09-0.07,0.13l-2.4,2.55
		c-0.15,0.15-0.34,0.23-0.54,0.23c-0.18,0-0.36-0.07-0.5-0.2c-0.3-0.28-0.31-0.74-0.03-1.04l1.24-1.31H10.9
		c-0.99,0-1.92-0.21-2.77-0.59c-2.17,0.41-4.39,0.7-6.66,0.86v2.94c0,1.87,1.52,3.39,3.38,3.39h54.3c1.86,0,3.38-1.52,3.38-3.39
		V19.29H59.91z M44.61,51.13c0,0.06-0.01,0.13-0.03,0.19c0,0.02-0.01,0.04-0.02,0.06c0,0.01,0,0.02,0,0.02
		c-0.03,0.08-0.08,0.14-0.13,0.2c-0.01,0.01-0.01,0.01-0.01,0.02l-2.12,2.24c-0.15,0.16-0.34,0.23-0.54,0.23
		c-0.18,0-0.36-0.06-0.5-0.2c-0.29-0.27-0.31-0.74-0.03-1.03l0.96-1.01h-3.31v2.48c0,0.91-0.73,1.64-1.64,1.64h-10.8
		c-0.91,0-1.64-0.73-1.64-1.64v-6.44c0-0.9,0.73-1.63,1.64-1.63h10.8c0.91,0,1.64,0.73,1.64,1.63v2.49h3.31l-0.96-1.01
		c-0.28-0.3-0.26-0.76,0.03-1.04c0.3-0.28,0.76-0.26,1.04,0.03l2.12,2.25c0.05,0.06,0.1,0.12,0.13,0.2
		c0.01,0.01,0.01,0.03,0.02,0.05c0.02,0.06,0.03,0.13,0.04,0.19V51.13z M60.42,54.33c0,0.91-0.73,1.64-1.63,1.64H47.98
		c-0.9,0-1.64-0.73-1.64-1.64v-6.44c0-0.9,0.74-1.63,1.64-1.63h10.81c0.9,0,1.63,0.73,1.63,1.63V54.33z"></path>
  <path d="M30.5,8.66H8.6c-1.68,0-3.04,1.36-3.04,3.04s1.36,3.04,3.04,3.04h21.9c1.68,0,3.05-1.36,3.05-3.04S32.18,8.66,30.5,8.66z
		 M30.5,13.28H8.6c-0.87,0-1.58-0.71-1.58-1.58c0-0.87,0.71-1.58,1.58-1.58h21.9c0.87,0,1.58,0.71,1.58,1.58
		C32.08,12.57,31.37,13.28,30.5,13.28z"></path>
  <path fill="#e1e9ff" d="M32.08,11.7c0,0.87-0.71,1.58-1.58,1.58H8.6c-0.87,0-1.58-0.71-1.58-1.58c0-0.87,0.71-1.58,1.58-1.58h21.9
		C31.37,10.12,32.08,10.83,32.08,11.7z"></path>
  <path d="M46.37,8.3c-1.87,0-3.4,1.52-3.4,3.4c0,1.87,1.53,3.4,3.4,3.4c1.88,0,3.4-1.53,3.4-3.4C49.77,9.82,48.25,8.3,46.37,8.3z
		 M46.37,13.63c-1.06,0-1.93-0.86-1.93-1.93s0.87-1.94,1.93-1.94c1.07,0,1.94,0.87,1.94,1.94S47.44,13.63,46.37,13.63z"></path>
  <path fill="#8a8bc4" d="M48.31,11.7c0,1.07-0.87,1.93-1.94,1.93c-1.06,0-1.93-0.86-1.93-1.93s0.87-1.94,1.93-1.94
		C47.44,9.76,48.31,10.63,48.31,11.7z"></path>
  <path d="M53.93,8.3c-1.87,0-3.4,1.52-3.4,3.4c0,1.87,1.53,3.4,3.4,3.4c1.88,0,3.4-1.53,3.4-3.4C57.33,9.82,55.81,8.3,53.93,8.3z
		 M53.93,13.63c-1.07,0-1.93-0.86-1.93-1.93s0.86-1.94,1.93-1.94c1.07,0,1.94,0.87,1.94,1.94S55,13.63,53.93,13.63z"></path>
  <path fill="#ffc064" d="M55.87,11.7c0,1.07-0.87,1.93-1.94,1.93c-1.07,0-1.93-0.86-1.93-1.93s0.86-1.94,1.93-1.94
		C55,9.76,55.87,10.63,55.87,11.7z"></path>
  <path d="M58.79,46.26H47.98c-0.9,0-1.64,0.73-1.64,1.63v6.44c0,0.91,0.74,1.64,1.64,1.64h10.81c0.9,0,1.63-0.73,1.63-1.64v-6.44
		C60.42,46.99,59.69,46.26,58.79,46.26z M58.96,54.33c0,0.1-0.08,0.17-0.17,0.17H47.98c-0.1,0-0.17-0.07-0.17-0.17v-6.44
		c0-0.09,0.07-0.17,0.17-0.17h10.81c0.09,0,0.17,0.08,0.17,0.17V54.33z"></path>
  <path fill="#42c3fc" d="M58.96,47.89v6.44c0,0.1-0.08,0.17-0.17,0.17H47.98c-0.1,0-0.17-0.07-0.17-0.17v-6.44
		c0-0.09,0.07-0.17,0.17-0.17h10.81C58.88,47.72,58.96,47.8,58.96,47.89z"></path>
  <path d="M23.35,26.36c-0.01-0.01-0.01-0.03-0.02-0.05c-0.04-0.07-0.08-0.14-0.13-0.2l-2.13-2.25c-0.27-0.29-0.74-0.31-1.03-0.03
		c-0.3,0.28-0.31,0.75-0.03,1.04l0.95,1.01h-3.3v-2.49c0-0.9-0.74-1.63-1.64-1.63H5.21c-0.9,0-1.63,0.73-1.63,1.63v6.45
		c0,0.9,0.73,1.63,1.63,1.63h10.81c0.9,0,1.64-0.73,1.64-1.63v-2.49h3.31l-0.96,1.01c-0.28,0.29-0.27,0.76,0.03,1.04
		c0.14,0.13,0.32,0.2,0.5,0.2c0.2,0,0.39-0.08,0.53-0.23l2.13-2.25c0-0.01,0-0.01,0-0.02c0.06-0.05,0.1-0.12,0.14-0.2
		c0,0,0-0.01,0-0.02c0.01-0.02,0.01-0.04,0.02-0.06c0.02-0.06,0.03-0.12,0.03-0.19v-0.08C23.38,26.49,23.37,26.43,23.35,26.36z
		 M16.19,29.84c0,0.09-0.07,0.16-0.17,0.16H5.21c-0.09,0-0.17-0.07-0.17-0.16v-6.45c0-0.09,0.08-0.17,0.17-0.17h10.81
		c0.1,0,0.17,0.08,0.17,0.17V29.84z"></path>
  <path fill="#42c3fc" d="M16.19,23.39v6.45c0,0.09-0.07,0.16-0.17,0.16H5.21c-0.09,0-0.17-0.07-0.17-0.16v-6.45
		c0-0.09,0.08-0.17,0.17-0.17h10.81C16.12,23.22,16.19,23.3,16.19,23.39z"></path>
  <path d="M52.78,25.88h-13.9v-2.49c0-0.9-0.73-1.63-1.64-1.63h-10.8c-0.91,0-1.64,0.73-1.64,1.63v6.45c0,0.9,0.73,1.63,1.64,1.63
		h10.8c0.91,0,1.64-0.73,1.64-1.63v-2.49h13.9c2.97,0,5.38,2.41,5.38,5.38s-2.41,5.38-5.38,5.38h-8.42l1.24-1.31
		c0.28-0.3,0.26-0.76-0.03-1.04c-0.29-0.28-0.76-0.26-1.04,0.03l-2.4,2.55c-0.03,0.04-0.05,0.08-0.07,0.12
		c-0.03,0.04-0.06,0.07-0.07,0.11c-0.07,0.18-0.07,0.37,0,0.55c0.01,0.04,0.04,0.07,0.07,0.11c0.02,0.04,0.04,0.08,0.07,0.12
		l2.4,2.55c0.15,0.15,0.34,0.23,0.54,0.23c0.18,0,0.36-0.07,0.5-0.2c0.29-0.28,0.31-0.74,0.03-1.04l-1.24-1.31h8.42
		c3.78,0,6.85-3.07,6.85-6.85S56.56,25.88,52.78,25.88z M37.41,29.84c0,0.09-0.07,0.16-0.17,0.16h-10.8c-0.1,0-0.17-0.07-0.17-0.16
		v-6.45c0-0.09,0.07-0.17,0.17-0.17h10.8c0.1,0,0.17,0.08,0.17,0.17V29.84z"></path>
  <path fill="#85d69e" d="M37.41,23.39v6.45c0,0.09-0.07,0.16-0.17,0.16h-10.8c-0.1,0-0.17-0.07-0.17-0.16v-6.45
		c0-0.09,0.07-0.17,0.17-0.17h10.8C37.34,23.22,37.41,23.3,37.41,23.39z"></path>
  <path d="M37.24,34.01h-10.8c-0.91,0-1.64,0.73-1.64,1.63v2.49H10.9c-3.78,0-6.85,3.07-6.85,6.85c0,3.77,3.07,6.85,6.85,6.85h8.42
		l-1.24,1.31c-0.28,0.3-0.27,0.76,0.03,1.04c0.14,0.13,0.32,0.2,0.5,0.2c0.2,0,0.39-0.08,0.54-0.23l2.4-2.55
		c0.03-0.04,0.05-0.08,0.07-0.13c0.03-0.03,0.06-0.06,0.07-0.1c0.07-0.18,0.07-0.38,0-0.55c-0.01-0.04-0.04-0.07-0.07-0.11
		c-0.02-0.04-0.04-0.08-0.07-0.12l-2.4-2.55c-0.28-0.29-0.75-0.31-1.04-0.03c-0.3,0.28-0.31,0.74-0.03,1.04l1.24,1.31H10.9
		c-2.97,0-5.38-2.41-5.38-5.38s2.41-5.38,5.38-5.38h13.9v2.49c0,0.9,0.73,1.63,1.64,1.63h10.8c0.91,0,1.64-0.73,1.64-1.63v-6.45
		C38.88,34.74,38.15,34.01,37.24,34.01z M37.41,42.09c0,0.09-0.07,0.16-0.17,0.16h-10.8c-0.1,0-0.17-0.07-0.17-0.16v-6.45
		c0-0.09,0.07-0.17,0.17-0.17h10.8c0.1,0,0.17,0.08,0.17,0.17V42.09z"></path>
  <path fill="#42c3fc" d="M37.41,35.64v6.45c0,0.09-0.07,0.16-0.17,0.16h-10.8c-0.1,0-0.17-0.07-0.17-0.16v-6.45
		c0-0.09,0.07-0.17,0.17-0.17h10.8C37.34,35.47,37.41,35.55,37.41,35.64z"></path>
  <path d="M44.57,50.86c-0.01-0.02-0.01-0.04-0.02-0.05c-0.03-0.08-0.08-0.14-0.13-0.2l-2.12-2.25c-0.28-0.29-0.74-0.31-1.04-0.03
		c-0.29,0.28-0.31,0.74-0.03,1.04l0.96,1.01h-3.31v-2.49c0-0.9-0.73-1.63-1.64-1.63h-10.8c-0.91,0-1.64,0.73-1.64,1.63v6.44
		c0,0.91,0.73,1.64,1.64,1.64h10.8c0.91,0,1.64-0.73,1.64-1.64v-2.48h3.31l-0.96,1.01c-0.28,0.29-0.26,0.76,0.03,1.03
		c0.14,0.14,0.32,0.2,0.5,0.2c0.2,0,0.39-0.07,0.54-0.23l2.12-2.24c0-0.01,0-0.01,0.01-0.02c0.05-0.06,0.1-0.12,0.13-0.2
		c0,0,0-0.01,0-0.02c0.01-0.02,0.02-0.04,0.02-0.06c0.02-0.06,0.03-0.13,0.03-0.19v-0.08C44.6,50.99,44.59,50.92,44.57,50.86z
		 M37.41,54.33c0,0.1-0.07,0.17-0.17,0.17h-10.8c-0.1,0-0.17-0.07-0.17-0.17v-6.44c0-0.09,0.07-0.17,0.17-0.17h10.8
		c0.1,0,0.17,0.08,0.17,0.17V54.33z"></path>
  <path fill="#85d69e" d="M37.41,47.89v6.44c0,0.1-0.07,0.17-0.17,0.17h-10.8c-0.1,0-0.17-0.07-0.17-0.17v-6.44
		c0-0.09,0.07-0.17,0.17-0.17h10.8C37.34,47.72,37.41,47.8,37.41,47.89z"></path>
</svg>
